HIERARCHY
ROOT hips
{
  OFFSET 4.514983404067499e-9 10.105397940993303 1.318478203070619
  CHANNELS 6 Xposition Yposition Zposition Yrotation Xrotation Zrotation
  JOINT spine
  {
    OFFSET -3.891297943093837e-9 0.5743022203102706 0
    CHANNELS 3 Yrotation Xrotation Zrotation
    JOINT chest
    {
      OFFSET 0 1.2550312016247926 0
      CHANNELS 3 Yrotation Xrotation Zrotation
      JOINT upperChest
      {
        OFFSET 0 1.2059856050120283 0
        CHANNELS 3 Yrotation Xrotation Zrotation
        JOINT neck
        {
          OFFSET 0 1.5290392449770056 0
          CHANNELS 3 Yrotation Xrotation Zrotation
          JOINT head
          {
            OFFSET 0 0.8186276690878121 0
            CHANNELS 3 Yrotation Xrotation Zrotation
            JOINT leftEye
            {
              OFFSET 0.4540883942785781 -0.2684596961258452 0.6133497327236779
              CHANNELS 3 Yrotation Xrotation Zrotation
              End Site
              {
                OFFSET 0.4540883942785781 -0.2684596961258452 0.6133497327236779
              }
            }
            JOINT rightEye
            {
              OFFSET -0.4540889229417456 -0.26846010916843954 0.6133525398671689
              CHANNELS 3 Yrotation Xrotation Zrotation
              End Site
              {
                OFFSET -0.4540889229417456 -0.26846010916843954 0.6133525398671689
              }
            }
          }
        }
        JOINT leftShoulder
        {
          OFFSET 1.1700010731725468 -0.4176065950681176 0
          CHANNELS 3 Yrotation Xrotation Zrotation
          JOINT leftUpperArm
          {
            OFFSET 1.1803911524554955 0 0
            CHANNELS 3 Yrotation Xrotation Zrotation
            JOINT leftLowerArm
            {
              OFFSET 2.4406171707858904 0 0
              CHANNELS 3 Yrotation Xrotation Zrotation
              JOINT leftHand
              {
                OFFSET 2.3832177068873874 0 0
                CHANNELS 3 Yrotation Xrotation Zrotation
                JOINT leftIndexProximal
                {
                  OFFSET 0.7310175006235151 0.08192774217833776 0.20404791572985242
                  CHANNELS 3 Yrotation Xrotation Zrotation
                  JOINT leftIndexIntermediate
                  {
                    OFFSET 0.3688845439429529 -0.010662034455094949 -0.014226011560394963
                    CHANNELS 3 Yrotation Xrotation Zrotation
                    JOINT leftIndexDistal
                    {
                      OFFSET 0.2271119941018298 -0.007897656478952575 -0.007580683836364496
                      CHANNELS 3 Yrotation Xrotation Zrotation
                      End Site
                      {
                        OFFSET 0.2271119941018298 -0.007897656478952575 -0.007580683836364496
                      }
                    }
                  }
                }
                JOINT leftLittleProximal
                {
                  OFFSET 0.678269929308182 0.08192620621401336 -0.323876516389586
                  CHANNELS 3 Yrotation Xrotation Zrotation
                  JOINT leftLittleIntermediate
                  {
                    OFFSET 0.34904545821382604 -0.0000017106393073174075 8.629360392919949e-9
                    CHANNELS 3 Yrotation Xrotation Zrotation
                    JOINT leftLittleDistal
                    {
                      OFFSET 0.2011060672849896 0.0031247840072243793 0.0038660318003989197
                      CHANNELS 3 Yrotation Xrotation Zrotation
                      End Site
                      {
                        OFFSET 0.2011060672849896 0.0031247840072243793 0.0038660318003989197
                      }
                    }
                  }
                }
                JOINT leftMiddleProximal
                {
                  OFFSET 0.7368181082522638 0.0819260272939426 0.02272335773438093
                  CHANNELS 3 Yrotation Xrotation Zrotation
                  JOINT leftMiddleIntermediate
                  {
                    OFFSET 0.41136739116025356 -0.0000015892429323649537 5.27860346960507e-8
                    CHANNELS 3 Yrotation Xrotation Zrotation
                    JOINT leftMiddleDistal
                    {
                      OFFSET 0.25378150303820757 -0.0000015332469289752737 1.3442958385345705e-8
                      CHANNELS 3 Yrotation Xrotation Zrotation
                      End Site
                      {
                        OFFSET 0.25378150303820757 -0.0000015332469289752737 1.3442958385345705e-8
                      }
                    }
                  }
                }
                JOINT leftRingProximal
                {
                  OFFSET 0.7284256823094712 0.08192611199801392 -0.1508405069143483
                  CHANNELS 3 Yrotation Xrotation Zrotation
                  JOINT leftRingIntermediate
                  {
                    OFFSET 0.381593741461262 -0.0000016975471202052006 6.592486757883709e-8
                    CHANNELS 3 Yrotation Xrotation Zrotation
                    JOINT leftRingDistal
                    {
                      OFFSET 0.22014536669820362 -0.0027420652959939673 -0.005037497035641991
                      CHANNELS 3 Yrotation Xrotation Zrotation
                      End Site
                      {
                        OFFSET 0.22014536669820362 -0.0027420652959939673 -0.005037497035641991
                      }
                    }
                  }
                }
                JOINT leftThumbProximal
                {
                  OFFSET 0.10842212958334652 -0.16573713992498873 -0.07779936144556289
                  CHANNELS 3 Yrotation Xrotation Zrotation
                  JOINT leftThumbIntermediate
                  {
                    OFFSET 0.40720553822379024 -0.01751267955631075 0.31852684427382305
                    CHANNELS 3 Yrotation Xrotation Zrotation
                    JOINT leftThumbDistal
                    {
                      OFFSET 0.23412859218032667 -0.01859690713588802 0.2146635043319005
                      CHANNELS 3 Yrotation Xrotation Zrotation
                      End Site
                      {
                        OFFSET 0.23412859218032667 -0.01859690713588802 0.2146635043319005
                      }
                    }
                  }
                }
              }
            }
          }
        }
        JOINT rightShoulder
        {
          OFFSET -1.1700037144859516 -0.41760703856471126 0
          CHANNELS 3 Yrotation Xrotation Zrotation
          JOINT rightUpperArm
          {
            OFFSET -1.1803910289368023 0 0
            CHANNELS 3 Yrotation Xrotation Zrotation
            JOINT rightLowerArm
            {
              OFFSET -2.440617418222133 0 0
              CHANNELS 3 Yrotation Xrotation Zrotation
              JOINT rightHand
              {
                OFFSET -2.3832181162662343 0 0
                CHANNELS 3 Yrotation Xrotation Zrotation
                JOINT rightIndexProximal
                {
                  OFFSET -0.7310168852843362 0.08192787643494381 0.20404785424302163
                  CHANNELS 3 Yrotation Xrotation Zrotation
                  JOINT rightIndexIntermediate
                  {
                    OFFSET -0.3688846010723953 -0.01066191355993129 -0.014226020535245201
                    CHANNELS 3 Yrotation Xrotation Zrotation
                    JOINT rightIndexDistal
                    {
                      OFFSET -0.22711216276130997 -0.007898902439410271 -0.007580718044857868
                      CHANNELS 3 Yrotation Xrotation Zrotation
                      End Site
                      {
                        OFFSET -0.22711216276130997 -0.007898902439410271 -0.007580718044857868
                      }
                    }
                  }
                }
                JOINT rightLittleProximal
                {
                  OFFSET -0.6782685897119165 0.08192501740206293 -0.3238766118101876
                  CHANNELS 3 Yrotation Xrotation Zrotation
                  JOINT rightLittleIntermediate
                  {
                    OFFSET -0.34904682243945895 -2.664019085329983e-7 3.792712677253007e-8
                    CHANNELS 3 Yrotation Xrotation Zrotation
                    JOINT rightLittleDistal
                    {
                      OFFSET -0.20110609302945537 0.0031260842677420797 0.0038661724369087186
                      CHANNELS 3 Yrotation Xrotation Zrotation
                      End Site
                      {
                        OFFSET -0.20110609302945537 0.0031260842677420797 0.0038661724369087186
                      }
                    }
                  }
                }
                JOINT rightMiddleProximal
                {
                  OFFSET -0.7368168209984411 0.08192485183145659 0.022723294831187846
                  CHANNELS 3 Yrotation Xrotation Zrotation
                  JOINT rightMiddleIntermediate
                  {
                    OFFSET -0.4113687575187084 -9.03141548214137e-8 4.759541079313312e-8
                    CHANNELS 3 Yrotation Xrotation Zrotation
                    JOINT rightMiddleDistal
                    {
                      OFFSET -0.2537822083525749 -9.554208624251714e-8 -1.6364827826187422e-9
                      CHANNELS 3 Yrotation Xrotation Zrotation
                      End Site
                      {
                        OFFSET -0.2537822083525749 -9.554208624251714e-8 -1.6364827826187422e-9
                      }
                    }
                  }
                }
                JOINT rightRingProximal
                {
                  OFFSET -0.7284243957721679 0.08192492753028224 -0.15084062217729294
                  CHANNELS 3 Yrotation Xrotation Zrotation
                  JOINT rightRingIntermediate
                  {
                    OFFSET -0.381595106800805 -2.5662436442530634e-7 2.929475539925619e-8
                    CHANNELS 3 Yrotation Xrotation Zrotation
                    JOINT rightRingDistal
                    {
                      OFFSET -0.22014544912608125 -0.002738002524970362 -0.0050375115645966
                      CHANNELS 3 Yrotation Xrotation Zrotation
                      End Site
                      {
                        OFFSET -0.22014544912608125 -0.002738002524970362 -0.0050375115645966
                      }
                    }
                  }
                }
                JOINT rightThumbProximal
                {
                  OFFSET -0.10842026863657162 -0.16573778435706465 -0.07779917642461898
                  CHANNELS 3 Yrotation Xrotation Zrotation
                  JOINT rightThumbIntermediate
                  {
                    OFFSET -0.40720600760521597 -0.017512298079938038 0.3185267362029824
                    CHANNELS 3 Yrotation Xrotation Zrotation
                    JOINT rightThumbDistal
                    {
                      OFFSET -0.2341289751103648 -0.018594162598156494 0.21466399510514025
                      CHANNELS 3 Yrotation Xrotation Zrotation
                      End Site
                      {
                        OFFSET -0.2341289751103648 -0.018594162598156494 0.21466399510514025
                      }
                    }
                  }
                }
              }
            }
          }
        }
      }
    }
  }
  JOINT leftUpperLeg
  {
    OFFSET -0.8565189721517369 0.4427277044191169 0
    CHANNELS 3 Yrotation Xrotation Zrotation
    JOINT leftLowerLeg
    {
      OFFSET 0 -3.918486704769693 0
      CHANNELS 3 Yrotation Xrotation Zrotation
      JOINT leftFoot
      {
        OFFSET 6.174701361744139e-7 -0.055233446196002234 4.612027801972084
        CHANNELS 3 Yrotation Xrotation Zrotation
        JOINT leftToes
        {
          OFFSET -3.4372540951010944e-7 -0.705284859504459 1.2256624571888697
          CHANNELS 3 Yrotation Xrotation Zrotation
          End Site
          {
            OFFSET -3.4372540951010944e-7 -0.705284859504459 1.2256624571888697
          }
        }
      }
    }
  }
  JOINT rightUpperLeg
  {
    OFFSET 0.8565189732197466 0.44272769569168136 0
    CHANNELS 3 Yrotation Xrotation Zrotation
    JOINT rightLowerLeg
    {
      OFFSET 0 -3.918486692649319 0
      CHANNELS 3 Yrotation Xrotation Zrotation
      JOINT rightFoot
      {
        OFFSET 6.995136552362391e-7 -0.05523244834012664 4.612028499942008
        CHANNELS 3 Yrotation Xrotation Zrotation
        JOINT rightToes
        {
          OFFSET -4.2566694985479714e-7 -0.7052846587611067 1.22566236096697
          CHANNELS 3 Yrotation Xrotation Zrotation
          End Site
          {
            OFFSET -4.2566694985479714e-7 -0.7052846587611067 1.22566236096697
          }
        }
      }
    }
  }
}
MOTION
Frames: 4
Frame Time: 0.03333333333333333
0.405411034822464 -0.26708865296840045 -0.018959948793053627 -20.029291466197513 -1.3139466627876242 -1.692385884918942 0.06247599274912277 3.9812554502948863 -0.25289834726779464 0.06442248012511674 15.927138231469398 -1.8118816735476146 0 0 0 -9.945218382104558 6.467755403707687 -2.8847621080917496 -57.75684117849347 0.7420479599136448 18.113969475886723 0 0 0 0 0 0 0.0000014251437558921706 0.000009245920701667891 0.0002642921355492524 -8.85479514709099 12.91219896168456 -64.34147310247015 -112.41891078853129 1.045871139783524 0.7188889114958293 -8.575983258817965 34.48272264586212 39.78251775200373 0.6165496041521675 -6.15801803465498 -14.518871052580966 0.17272471095343725 0.006025594230913734 -36.397328564953604 -5.138253261219184e-7 -0.000003038612174694916 0.0000014759412343762605 9.25562518167283 5.188698719598486 -29.28773229252458 -1.0483961275976106 -0.04174463246656547 -7.813904140742056 -0.000007385713298230362 -0.0000030978653486329573 0.0000016417671114700337 1.0463235941806925 -0.6997519730240208 -14.05913475089418 -3.1430153044383156 -1.01223322228204 -35.32932478152892 -0.0000113669120121022 -0.000010454459829088182 -0.00000510058623201541 7.977248652408907 1.6787851203416835 -15.876827760361572 -2.3425116556415757 -0.5014357742923037 -24.587572058096693 0.000007050897884467826 0.0000036704333823887617 -9.107201547124507e-8 -13.666844933081187 -5.240933646213055 -1.8467442456305478 21.37729089226288 3.236006805927614 -4.868958259405545 -0.0000067253324397187314 -0.00000815080351285434 -0.0000015145599873184646 0.000007968279367460679 0.000003462051174768257 0.00030603303739949115 13.096892479764099 5.219693393024663 72.04358588688024 88.64902895858798 0.7177005753910928 -0.810699771309134 12.307991496701636 19.67222931901805 -34.78484152071863 -5.495360761234093 -6.434186346644586 8.537321398935648 -0.26839527017556186 0.027093041917530293 8.456204514563709 3.933694872703174e-10 3.1805546814635168e-15 -4.874754472204794e-12 3.131591809625206 2.5715334364380764 28.683361630786596 5.850753171699262 -1.716765586267325 32.94762128903089 1.6628260911929426e-9 -3.1805543023118527e-15 -2.179830267765673e-11 -7.071723907010829 -0.5239055950615605 8.064260156944293 1.4840083468477425 -0.276238226077595 20.243061376078238 -1.524762367070164e-8 -3.350057845199431e-15 -0.0000012738795267965104 -3.750743049958731 2.25169401021179 14.32134743090019 5.676183424597445 -3.077089894875244 54.689557060528244 -0.000013081337852048256 0.000004036778728819463 -0.000007375140625580428 4.440134750483038 2.7374883727480848 7.121338776680372 -11.126729555995423 2.9108624507488905 1.0976613646906868 -0.0000021710867260004195 0.0000011618697544683478 0.0000047933033280196144 10.06874063371249 -9.786354973784647 4.220702981794017 -0.17642379801647665 25.357297351292573 -1.0231795783401163 14.444430671172645 -13.810431039474846 -4.915414845270113 -0.025839910964469515 -0.016592685837851288 0.029016470576261853 5.649096197311948 -11.55415465742906 -5.094927418203125 0.0369654461766964 23.01526931472497 0.8641864776040957 -2.4226846639955717 -10.181391495977484 11.689537072216615 -0.10631138256139899 -0.012208956563684193 0.26350555395698283
0.40004560351371765 -0.2674777520894942 -0.020791903138160706 -19.943978759739466 -1.3504243971578116 -1.6454610918380754 0.0539959729618713 3.980152274638523 -0.2513831513823886 0.03393596253256459 15.92221778712344 -1.7879557719566006 0 0 0 -9.963394420301883 6.478485306826561 -2.897957964489796 -57.84575405360501 0.6847042348240349 18.08707230981822 0 0 0 0 0 0 0.0000014251437558921706 0.000009245920701667891 0.0002642921355492524 -9.234942162094663 12.964238565223049 -64.42152641383002 -112.07009816372609 1.041099354579483 0.7212842283775324 -8.578079397225649 34.62316989768246 40.18520156269417 0.560578503997267 -6.173995351223208 -14.566666552355855 0.17269987158960107 0.005985089174530552 -36.3831533922164 -5.138253261219184e-7 -0.000003038612174694916 0.0000014759412343762605 9.306851744144911 5.22207377103255 -29.306115669554288 -1.049639665091099 -0.04191716816026417 -7.823593213640962 -0.000007385713298230362 -0.0000030978653486329573 0.0000016417671114700337 1.0062334553293262 -0.7148695609205812 -14.20707860025136 -3.121276698875448 -0.9968994386409636 -35.04917411296544 -0.0000113669120121022 -0.000010454459829088182 -0.00000510058623201541 7.9606413379479015 1.6807775102899072 -15.963712962659976 -2.3473610400530567 -0.5036603137360532 -24.64176366964136 0.000007050897884467826 0.0000036704333823887617 -9.107201547124507e-8 -13.658045420195805 -5.274040972922896 -1.9540564847829611 21.25680849969459 3.182945643152444 -4.8595947258786625 -0.0000067253324397187314 -0.00000815080351285434 -0.0000015145599873184646 0.000007968279367460679 0.000003462051174768257 0.00030603303739949115 13.206513273429085 5.433121489312289 72.15346268470459 88.58969354516081 0.7162465383907882 -0.8110993437104045 12.197422730852612 19.856768302972572 -35.09752911142937 -5.46350499643054 -6.438453509132708 8.889442537348668 -0.2679444665972765 0.027019675739205384 8.438506030997573 3.933694872703174e-10 3.1805546814635168e-15 -4.874754472204794e-12 3.142846245112016 2.559501097116466 28.547865774454948 5.831459955592115 -1.704138624254781 32.82462746577038 1.6628260911929426e-9 -3.1805543023118527e-15 -2.179830267765673e-11 -7.100215029142648 -0.5016957049661815 8.190438162291034 1.4780749642371516 -0.27403794598079306 20.158626409863118 -1.524762367070164e-8 -3.350057845199431e-15 -0.0000012738795267965104 -3.893473652517954 2.294203549035837 14.177089918181395 5.655647983573661 -3.0482778505201993 54.398894010167076 -0.000013081337852048256 0.000004036778728819463 -0.000007375140625580428 4.145310140730007 2.8989205282585377 7.198600916922347 -11.520922047933233 3.1091965110474904 1.074109985655645 -0.0000021710867260004195 0.0000011618697544683478 0.0000047933033280196144 10.009802754288877 -9.744326027400499 4.217952498271213 -0.1754695175001972 25.34406897507582 -1.0221734678419858 14.414607526772667 -13.786079618634805 -4.941697034187799 -0.02583602229264235 -0.016559136867718923 0.02907619137113701 5.6202819252926925 -11.533665413495198 -5.109892806577269 0.03650755809796312 23.09305523915392 0.8673342642995379 -2.4795736975187865 -10.245345951750839 11.620002358793318 -0.10631110241740156 -0.012203447889261546 0.26350782176932386
0.3908122479915619 -0.26687312257289264 -0.022700704634189606 -19.8391496316164 -1.384810748550857 -1.606377448987508 0.030680762097256512 3.9667307076786975 -0.2460673144826136 -0.054534113842285056 15.867186622714094 -1.7546732924417046 0 0 0 -10.004936936183062 6.5492929396996225 -2.9535623893820038 -58.067460947556164 0.6332918128802306 17.830959402468828 0 0 0 0 0 0 0.0000014251437558921706 0.000009245920701667891 0.0002642921355492524 -9.596437751585317 13.245558408069838 -64.66803263299947 -111.55384186084368 1.0340663081883694 0.7252911346671572 -8.874587607805983 34.91859051008826 40.64643523215163 0.4134881625423953 -6.265088739360111 -15.344153120984858 0.17279431986850327 0.006146554530584506 -36.43311646513626 -5.138253261219184e-7 -0.000003038612174694916 0.0000014759412343762605 9.193223219819695 5.28786590121751 -29.97574711785877 -1.0682767926476302 -0.04462401158713242 -7.968703109009588 -0.000007385713298230362 -0.0000030978653486329573 0.0000016417671114700337 1.0623778182832553 -0.7270338635385124 -15.481604485326034 -3.098159313163332 -0.9808086383381724 -34.75252012928322 -0.0000113669120121022 -0.000010454459829088182 -0.00000510058623201541 7.858491642309021 1.753954560399924 -16.97023556303983 -2.3620464144759223 -0.5104433840878868 -24.806531836608286 0.000007050897884467826 0.0000036704333823887617 -9.107201547124507e-8 -13.80689937751956 -5.449666620742789 -2.182257598909494 21.140209569215923 3.131724928783937 -4.85035864528269 -0.0000067253324397187314 -0.00000815080351285434 -0.0000015145599873184646 0.000007968279367460679 0.000003462051174768257 0.00030603303739949115 13.339104066246492 5.701914599024561 72.43623876886167 88.64225178406012 0.7161965353649291 -0.8113208347142289 11.918007755352772 20.219638746209615 -35.356510700437944 -5.438243670198521 -6.435842429309305 9.556337189062113 -0.27029854576873624 0.027494635741952718 8.534466636859015 3.933694872703174e-10 3.1805546814635168e-15 -4.874754472204794e-12 3.197071229416755 2.5094124258250154 28.527839271303247 5.798992705420455 -1.6830547586511984 32.61820986969922 1.6628260911929426e-9 -3.1805543023118527e-15 -2.179830267765673e-11 -7.1422527939423395 -0.45900488105403986 8.478233555940712 1.459192722872924 -0.26718921756221037 19.890597073454924 -1.524762367070164e-8 -3.350057845199431e-15 -0.0000012738795267965104 -3.959160225868558 2.311304357469795 14.13513305452202 5.604157257489947 -2.9773890072163582 53.678693229498535 -0.000013081337852048256 0.000004036778728819463 -0.000007375140625580428 3.74614795130538 3.116353582989812 7.332099935756443 -12.187193550579469 3.4448423813218105 1.029707715397392 -0.0000021710867260004195 0.0000011618697544683478 0.0000047933033280196144 9.956543469357301 -9.678822393899438 4.250950071821513 -0.17397108523265808 25.277148102892497 -1.0187868966697855 14.35565448040243 -13.730854137605814 -4.983898208269497 -0.025838595286051175 -0.01659912415852797 0.029009410268961613 5.537188775304551 -11.491300037985628 -5.087685134514895 0.0356607891238306 23.132555556932452 0.8688351520529496 -2.4749515348376545 -10.319379758710378 11.49002778202138 -0.10632132100320935 -0.012212150711060235 0.26350576739814435
0.38424167037010193 -0.26518416535853717 -0.02326190657913685 -19.803865898561416 -1.3910746958690456 -1.5885850996116408 0.019273837433947193 3.95200938437356 -0.24249172498557672 -0.09670954256432542 15.807673433631024 -1.7314880648364375 0 0 0 -10.031412959999024 6.602364749337028 -2.990370910018143 -58.19417943079092 0.6452900004719176 17.647473398661813 0 0 0 0 0 0 0.0000014251437558921706 0.000009245920701667891 0.0002642921355492524 -9.732007471074892 13.56779809161413 -64.90149050284676 -111.26535659246612 1.030119632818473 0.7278280143580865 -9.229262106134161 35.15923079088571 40.86356316583519 0.36571340992698054 -6.315224911948062 -15.922351111734118 0.17281682470544218 0.00619896447670561 -36.44721437353822 -5.138253261219184e-7 -0.000003038612174694916 0.0000014759412343762605 9.060324558227192 5.304922416167764 -30.464704996873888 -1.0838807387635543 -0.046931378958436486 -8.089937568452251 -0.000007385713298230362 -0.0000030978653486329573 0.0000016417671114700337 1.1108753725564207 -0.7289109296836395 -16.332231623775467 -3.079832968528226 -0.9681451301762465 -34.518021501438085 -0.0000113669120121022 -0.000010454459829088182 -0.00000510058623201541 7.784722390461546 1.801486847594402 -17.653308382206962 -2.37024260560237 -0.5142405874704042 -24.8985023804734 0.000007050897884467826 0.0000036704333823887617 -9.107201547124507e-8 -13.834594241609983 -5.503554780456365 -2.277739385753037 21.1438197784712 3.1333319976226353 -4.850619662410273 -0.0000067253324397187314 -0.00000815080351285434 -0.0000015145599873184646 0.000007968279367460679 0.000003462051174768257 0.00030603303739949115 13.371904138481977 5.866793976901653 72.67350767568936 88.729358753768 0.7169532514389595 -0.811332617205362 11.721166966162667 20.498545694950714 -35.409227780536405 -5.426867257306626 -6.43625226227296 9.803505189364255 -0.2711250857195867 0.027694232035338932 8.56816393434005 3.933694872703174e-10 3.1805546814635168e-15 -4.874754472204794e-12 3.1597148233175383 2.527351527966704 28.484598882833307 5.777911900876409 -1.6694554752305266 32.48434340517012 1.6628260911929426e-9 -3.1805543023118527e-15 -2.179830267765673e-11 -7.192549618806971 -0.4339721178100664 8.523377192199877 1.4382261983175457 -0.2596598415941988 19.593300308052655 -1.524762367070164e-8 -3.350057845199431e-15 -0.0000012738795267965104 -3.9833523753633022 2.3137722791064204 14.073990900058469 5.5639109123943475 -2.9232971278122934 53.12477812354181 -0.000013081337852048256 0.000004036778728819463 -0.000007375140625580428 3.626035575644058 3.1768629586945063 7.460720798044143 -12.565156640668771 3.635486583468928 1.0018406283124754 -0.0000021710867260004195 0.0000011618697544683478 0.0000047933033280196144 9.904623264332024 -9.61098312590155 4.274934031778293 -0.1725150771722233 25.165942992972788 -1.013674453933101 14.373961880967851 -13.664888563283979 -5.019806755699268 -0.02583532860161312 -0.016605562479204857 0.028998698078573366 5.557631737331625 -11.439901697404059 -5.054006335354265 0.03489838240066325 23.080897064094106 0.8667098373330003 -2.486128581272706 -10.33548240252659 11.386331217336751 -0.10631074223226199 -0.0122066637144845 0.2635110500668903
